<svg id="Layer_1" data-name="Layer 1" xmlns="http://www.w3.org/2000/svg" viewBox="0 0 104 75">
  <title>klm-wing</title>
  <path d="M0,75c5.09-.18,12.24,1,19.26-6.44s56.59-63,58.38-64.83A12.13,12.13,0,0,1,86.37,0H104V75H0Z" fill="#fff"/>
  <g>
    <polygon points="56.51 46.19 56.51 54.91 59.84 54.91 59.84 51.75 62.99 54.91 67.39 54.91 62.53 50.06 66.39 46.19 63.08 46.19 59.81 49.39 59.81 46.19 56.51 46.19 56.51 46.19" fill="#00a1de"/>
    <polygon points="67.35 46.19 67.35 54.91 76.13 54.91 76.13 52.72 70.72 52.72 70.72 46.19 67.35 46.19 67.35 46.19" fill="#00a1de"/>
    <polygon points="77.1 46.19 77.1 54.91 80.43 54.91 80.43 48.61 82.65 54.91 85.78 54.91 88.01 48.56 88.01 54.91 91.34 54.91 91.34 46.19 85.88 46.19 84.2 51.01 82.56 46.19 77.1 46.19 77.1 46.19" fill="#00a1de"/>
    <polygon points="80.44 44.21 80.44 41.97 67.3 41.97 67.3 44.21 80.44 44.21 80.44 44.21" fill="#00a1de"/>
    <polygon points="73.31 36.81 72.21 36.8 72.21 35.73 73.31 35.73 73.31 34.63 74.38 34.63 74.38 35.73 75.48 35.73 75.48 36.8 74.38 36.81 74.38 37.9 73.31 37.9 73.31 36.81 73.31 36.81" fill="#00a1de"/>
    <path d="M67.37,41.46a1.89,1.89,0,1,0-1.89-1.89h0a1.89,1.89,0,0,0,1.89,1.89h0Z" fill="#00a1de"/>
    <path d="M71.73,41.46a1.89,1.89,0,1,0-1.89-1.89h0a1.89,1.89,0,0,0,1.89,1.89h0Z" fill="#00a1de"/>
    <path d="M76.1,41.46a1.89,1.89,0,1,0-1.89-1.89h0a1.89,1.89,0,0,0,1.89,1.89h0Z" fill="#00a1de"/>
    <path d="M80.48,41.46a1.89,1.89,0,1,0-1.89-1.89h0a1.89,1.89,0,0,0,1.89,1.89h0Z" fill="#00a1de"/>
  </g>
</svg>
